<?xml version="1.0" standalone="no"?>
<!DOCTYPE svg PUBLIC "-//W3C//DTD SVG 20010904//EN"
 "http://www.w3.org/TR/2001/REC-SVG-20010904/DTD/svg10.dtd">
<svg version="1.0" xmlns="http://www.w3.org/2000/svg"
 width="612.000000pt" height="344.000000pt" viewBox="0 0 612.000000 344.000000"
 preserveAspectRatio="xMidYMid meet">

<g transform="translate(0.000000,344.000000) scale(0.100000,-0.100000)"
fill="#000000" stroke="none">
<path d="M5913 2363 c-40 -9 -73 -19 -73 -24 0 -5 10 -5 23 0 12 4 42 11 67
15 25 4 52 11 60 16 19 12 13 11 -77 -7z"/>
<path d="M5810 2330 c0 -5 5 -10 10 -10 6 0 10 5 10 10 0 6 -4 10 -10 10 -5 0
-10 -4 -10 -10z"/>
<path d="M5780 2320 c0 -5 5 -10 10 -10 6 0 10 5 10 10 0 6 -4 10 -10 10 -5 0
-10 -4 -10 -10z"/>
<path d="M6060 2308 c-33 -13 -55 -17 -57 -11 -2 6 -14 8 -26 5 -29 -7 -66
-32 -48 -32 11 0 11 -3 1 -15 -7 -8 -15 -13 -19 -10 -4 2 -20 -5 -37 -16 -16
-10 -43 -19 -61 -19 -17 0 -35 -5 -38 -10 -4 -6 -10 -8 -15 -5 -4 3 -50 -3
-102 -14 -179 -36 -175 -36 -200 4 -13 19 -36 40 -52 47 -26 10 -31 9 -46 -10
-11 -14 -32 -23 -53 -24 -19 -2 -33 -7 -30 -12 4 -5 -7 -6 -23 -2 -21 5 -25 4
-14 -4 13 -8 13 -10 -1 -10 -20 0 -42 24 -31 34 10 11 -71 -5 -83 -16 -6 -5 6
-8 32 -6 59 4 58 -15 -2 -27 -31 -7 -51 -17 -51 -26 -1 -8 -2 -20 -3 -26 0 -7
-10 -13 -22 -13 -11 0 -30 -5 -41 -11 -16 -9 -19 -8 -16 2 3 8 -1 19 -8 26
-17 17 -29 16 -15 -1 9 -11 -2 -14 -67 -18 -58 -3 -83 -9 -100 -24 -13 -10
-25 -18 -27 -17 -4 1 -64 -14 -125 -32 -34 -10 -181 -47 -255 -64 -44 -11
-107 -29 -140 -40 -79 -28 -80 -28 -77 -13 2 10 -4 12 -20 7 -22 -5 -22 -5 2
9 l25 14 -26 -1 c-19 -2 -26 -8 -27 -25 -3 -33 -9 -41 -30 -36 -9 3 -80 -2
-157 -10 -88 -9 -144 -11 -149 -5 -6 5 -14 9 -20 9 -5 0 -1 -8 9 -18 16 -15
28 -17 75 -11 152 21 226 27 233 19 15 -14 -7 -19 -149 -29 -132 -10 -140 -10
-166 9 -32 24 -42 25 -34 5 3 -8 1 -15 -4 -15 -5 0 -6 -8 -3 -17 4 -11 8 -12
11 -5 9 27 21 9 19 -28 -3 -40 -7 -46 -30 -37 -9 4 -9 6 1 6 6 1 12 10 12 21
0 19 -5 20 -102 15 -57 -3 -113 -8 -125 -10 -12 -3 -24 -1 -27 4 -3 5 41 15
99 22 58 7 110 18 115 24 7 8 5 12 -5 12 -8 0 -12 -3 -10 -7 3 -4 -28 -10 -68
-13 -40 -4 -90 -9 -111 -13 -25 -5 -37 -4 -33 3 3 5 0 10 -8 10 -8 0 -15 -6
-15 -13 0 -7 -19 -17 -42 -22 l-43 -10 47 -1 c51 -1 78 -20 31 -22 -102 -4
-220 -3 -217 2 2 4 -5 9 -15 12 -54 14 -55 -49 -1 -75 39 -20 188 -26 206 -8
11 11 86 13 166 4 49 -5 63 -2 93 16 20 12 42 19 51 16 8 -3 25 -1 37 6 32 17
60 18 102 4 l38 -13 -46 -34 c-25 -19 -53 -47 -63 -63 -9 -16 -31 -43 -47 -60
-58 -60 -148 -189 -142 -204 3 -8 -3 -25 -14 -36 -11 -12 -20 -23 -19 -26 0
-9 -13 -102 -24 -171 -14 -86 -6 -119 28 -119 51 0 121 115 129 210 4 52 29
102 69 133 43 34 48 34 35 1 -5 -15 -9 -43 -9 -63 1 -20 -1 -88 -4 -151 -6
-134 -3 -150 28 -150 41 0 84 70 92 153 3 29 12 67 21 85 8 18 12 40 9 50 -3
9 5 39 19 66 14 27 25 60 25 72 0 30 50 102 96 138 l37 29 -7 -29 c-4 -16 -11
-51 -16 -79 -5 -27 -22 -84 -39 -127 -35 -86 -40 -151 -17 -220 8 -24 20 -63
26 -88 15 -55 26 -70 55 -70 26 0 51 25 60 61 4 15 16 31 28 36 28 13 217 173
217 183 0 5 37 30 83 56 45 26 108 64 140 86 32 21 70 38 84 38 20 0 46 20
102 78 42 44 90 86 106 96 17 9 37 21 45 26 8 5 34 14 57 20 24 6 55 21 69 33
24 21 25 24 11 39 -13 12 -15 26 -9 59 l8 44 7 -34 c5 -24 3 -37 -5 -43 -7 -4
-8 -8 -3 -8 6 0 27 -16 46 -35 34 -33 38 -34 75 -24 35 10 37 12 21 24 -16 12
-12 14 33 24 28 6 56 11 62 11 6 0 19 7 28 15 13 12 24 13 42 6 13 -5 31 -6
39 -1 7 4 57 10 109 14 52 3 186 14 298 23 l202 18 0 267 c0 148 -1 268 -2
267 -2 0 -28 -9 -58 -21z m-624 -192 c15 -36 31 -63 36 -60 4 3 4 -5 -1 -18
-5 -13 -17 -23 -27 -23 -15 0 -22 13 -34 60 -22 86 -30 105 -41 105 -6 0 -7 5
-4 10 13 21 43 -11 71 -74z m-96 67 c-2 -34 -69 -91 -91 -77 -15 9 -10 34 6
34 8 0 25 11 37 25 20 24 48 34 48 18z m657 -9 c-3 -3 -12 -4 -19 -1 -8 3 -5
6 6 6 11 1 17 -2 13 -5z m-88 -30 c10 -9 -45 -3 -59 6 -11 7 -5 8 20 4 19 -4
37 -8 39 -10z m9 -17 c47 2 62 -1 62 -11 0 -16 -30 -26 -80 -26 -35 0 -82 19
-50 20 9 1 6 6 -10 16 -14 9 -16 12 -5 7 11 -4 48 -7 83 -6z m-648 -132 c22
-67 24 -78 9 -52 -5 9 -20 17 -33 17 -20 0 -26 9 -41 58 -10 31 -20 61 -22 65
-3 5 4 11 16 14 12 3 21 13 21 22 1 17 19 -27 50 -124z m437 129 c-3 -3 -12
-4 -19 -1 -8 3 -5 6 6 6 11 1 17 -2 13 -5z m-320 -52 c9 -20 19 -41 21 -45 2
-5 -5 -4 -16 2 -26 14 -67 14 -93 1 -12 -7 -19 -7 -19 -1 0 11 69 33 81 25 4
-2 11 0 14 6 4 6 -6 16 -23 22 -27 11 -29 13 -14 24 22 16 29 11 49 -34z m174
22 c6 -7 8 -18 4 -24 -11 -18 -34 -11 -41 14 -4 17 -11 23 -22 19 -13 -4 -14
-3 -3 5 16 12 46 5 62 -14z m50 15 c-14 -5 -28 -6 -32 -2 -4 4 6 9 24 10 30 1
31 1 8 -8z m-481 -112 c6 -32 9 -61 6 -64 -3 -4 -6 -1 -6 5 0 6 -5 23 -11 39
-12 31 -20 112 -8 91 4 -7 12 -39 19 -71z m-130 28 c-7 -8 -16 -13 -20 -10 -5
3 -11 1 -15 -5 -3 -5 -22 -10 -41 -10 -23 0 -33 4 -28 11 3 6 19 9 35 5 21 -4
33 1 51 19 24 25 39 16 18 -10z m96 -25 c-5 -42 -16 -51 -16 -13 0 26 6 43 16
43 2 0 2 -14 0 -30z m290 4 c19 -15 19 -15 -1 -6 -11 5 -27 12 -35 15 -13 5
-13 6 1 6 8 1 24 -6 35 -15z m-56 2 c0 -2 -7 -7 -16 -10 -8 -3 -12 -2 -9 4 6
10 25 14 25 6z m-480 -14 c0 -6 -31 -25 -82 -50 -17 -7 -7 10 18 33 26 24 64
34 64 17z m-123 -37 c-4 -8 -14 -14 -24 -14 -17 1 -17 2 0 6 9 2 17 12 17 20
0 9 3 14 6 10 4 -3 4 -13 1 -22z m33 11 c0 -3 -4 -8 -10 -11 -5 -3 -10 -1 -10
4 0 6 5 11 10 11 6 0 10 -2 10 -4z m-213 -22 c-3 -3 -12 -4 -19 -1 -8 3 -5 6
6 6 11 1 17 -2 13 -5z m86 -1 c-13 -2 -35 -2 -50 0 -16 2 -5 4 22 4 28 0 40
-2 28 -4z m304 -9 c-3 -3 -12 -4 -19 -1 -8 3 -5 6 6 6 11 1 17 -2 13 -5z
m-502 -13 c-6 -5 -23 -12 -40 -16 l-30 -6 30 15 c35 17 53 20 40 7z m92 3 c-3
-3 -12 -4 -19 -1 -8 3 -5 6 6 6 11 1 17 -2 13 -5z m381 -10 c36 -10 25 -22
-25 -29 -94 -12 -113 -16 -108 -24 7 -12 -38 -22 -49 -11 -21 21 66 69 129 69
17 1 40 -2 53 -5z m301 -40 c18 -51 82 -114 115 -114 14 0 26 4 26 9 0 5 15
11 34 13 24 3 37 -1 44 -13 6 -9 8 -20 5 -23 -11 -11 -41 -6 -46 7 -3 7 -6 5
-6 -5 -1 -10 -9 -18 -18 -19 -20 -1 -29 -2 -103 -18 -28 -6 -52 -11 -54 -11
-9 0 -12 39 -5 52 12 21 -1 58 -20 58 -14 1 -14 2 1 11 16 9 17 13 3 46 -18
43 -18 43 -2 43 7 0 19 -16 26 -36z m-823 5 c10 -17 -36 -49 -71 -48 -39 0
-113 34 -92 42 9 3 17 1 19 -4 2 -6 19 -4 43 5 49 18 91 20 101 5z m1098 -21
c10 -40 7 -58 -11 -58 -14 0 -15 -2 -5 -9 11 -7 10 -10 -3 -15 -9 -3 -17 -6
-18 -6 -1 0 0 25 1 55 4 57 24 76 36 33z m-171 -61 c-19 -11 -53 19 -53 47 0
17 2 18 10 6 7 -12 10 -12 16 4 6 16 10 14 25 -15 15 -30 15 -35 2 -42z
m-1088 33 c4 -6 -5 -10 -20 -10 -15 0 -24 4 -20 10 3 6 12 10 20 10 8 0 17 -4
20 -10z m702 -6 c7 -20 -19 -66 -64 -114 -18 -19 -35 -42 -38 -50 -7 -22 -98
-80 -110 -70 -6 5 -21 27 -33 49 -17 31 -19 39 -8 35 25 -9 69 42 62 72 -4 16
-2 24 7 24 7 0 37 16 67 35 58 38 107 45 117 19z m47 -9 c-7 -17 11 -21 19 -5
3 6 4 5 3 -2 -4 -18 -48 -16 -53 2 -4 12 -3 12 5 2 7 -11 10 -11 15 2 4 9 9
16 11 16 3 0 3 -7 0 -15z m134 -56 c-3 -8 -7 -3 -11 10 -4 17 -3 21 5 13 5 -5
8 -16 6 -23z m-873 2 c-8 -13 -52 -14 -60 -2 -3 5 9 11 27 13 39 4 42 3 33
-11z m1092 13 c-3 -3 -12 -4 -19 -1 -8 3 -5 6 6 6 11 1 17 -2 13 -5z m-611
-23 c0 -11 -4 -17 -8 -15 -4 3 -8 0 -8 -7 0 -7 -2 -10 -5 -8 -6 7 6 49 14 49
4 0 7 -9 7 -19z m-468 -117 c-4 -3 -16 -3 -28 1 -17 5 -19 9 -9 21 11 13 14
13 28 0 8 -9 12 -18 9 -22z m170 -1 c-2 -9 -17 -22 -34 -29 -28 -12 -34 -11
-55 9 l-24 22 35 6 c66 12 82 10 78 -8z m169 11 c-3 -4 -21 -8 -39 -9 -18 -1
-50 -6 -70 -10 -31 -6 -38 -4 -38 9 0 13 13 16 77 16 42 0 73 -3 70 -6z m-380
-46 c-3 -8 -6 -5 -6 6 -1 11 2 17 5 13 3 -3 4 -12 1 -19z m305 -38 c-53 -72
-145 -162 -190 -186 -25 -13 -46 -24 -48 -24 -7 0 10 36 28 62 10 15 24 42 30
60 16 46 40 77 61 78 9 0 17 5 17 10 0 6 8 10 18 10 9 0 35 7 57 15 58 21 60
19 27 -25z m159 23 c13 -15 12 -15 -6 -6 -27 16 -45 5 -150 -94 -118 -110
-133 -122 -139 -115 -3 3 20 24 52 47 32 23 84 72 116 108 31 36 67 68 79 70
12 2 25 5 28 6 4 0 13 -7 20 -16z m-766 -53 c3 -5 -1 -10 -9 -10 -9 0 -16 -8
-16 -17 0 -18 -49 -67 -58 -58 -7 7 20 69 36 83 19 15 39 16 47 2z m85 -14 c0
-3 -4 -8 -10 -11 -5 -3 -10 -1 -10 4 0 6 5 11 10 11 6 0 10 -2 10 -4z m-190
-45 c-29 -42 -36 -39 -8 3 13 19 24 33 26 31 3 -2 -6 -18 -18 -34z m210 -36
c0 -23 -35 -87 -58 -108 -18 -17 -18 -13 6 53 14 40 30 70 38 70 8 0 14 -7 14
-15z m-250 -8 c0 -2 -12 -14 -27 -28 l-28 -24 24 28 c23 25 31 32 31 24z m-50
-61 c0 -2 -8 -10 -17 -17 -16 -13 -17 -12 -4 4 13 16 21 21 21 13z m687 -32
c2 -6 -4 -14 -13 -18 -19 -7 -47 11 -38 26 8 12 46 6 51 -8z m-183 -19 c-4 -8
-10 -12 -15 -9 -11 6 -2 24 11 24 5 0 7 -7 4 -15z m122 3 c4 -6 3 -8 -4 -4 -6
3 -17 -2 -24 -12 -7 -10 -24 -25 -38 -32 -14 -7 -36 -22 -50 -34 l-25 -21 24
27 c13 15 33 30 43 34 10 3 15 10 12 16 -4 7 -2 8 4 4 6 -3 16 3 22 14 12 22
25 26 36 8z m-609 -16 c9 -6 8 -12 -6 -24 -17 -14 -20 -14 -25 -2 -4 10 -1 13
7 9 6 -4 3 1 -7 9 -20 16 -20 16 0 16 10 0 25 -4 31 -8z m-70 -33 c-11 -29
-12 -29 -15 -9 -3 18 10 38 25 40 1 0 -4 -14 -10 -31z m306 -50 c-5 -5 -7 7
-4 29 5 34 6 35 9 8 2 -16 0 -32 -5 -37z m-17 29 c2 -14 -2 -15 -22 -6 -13 6
-21 15 -18 20 9 14 37 5 40 -14z m-15 -32 c4 -32 -10 -106 -19 -106 -4 0 -7
29 -7 64 0 47 3 62 13 59 6 -3 13 -10 13 -17z m-294 -33 c-3 -10 -5 -2 -5 17
0 19 2 27 5 18 2 -10 2 -26 0 -35z m603 32 c0 -2 -10 -10 -22 -16 -21 -11 -22
-11 -9 4 13 16 31 23 31 12z"/>
<path d="M5235 1790 c9 -30 13 -35 21 -27 3 3 -2 16 -11 29 l-17 23 7 -25z"/>
<path d="M4770 1680 c-9 -16 -8 -18 5 -14 8 4 15 12 15 20 0 20 -7 17 -20 -6z"/>
<path d="M5650 2265 c-14 -8 -20 -14 -15 -14 6 0 21 6 35 14 14 8 21 14 15 14
-5 0 -21 -6 -35 -14z"/>
<path d="M743 2225 c-22 -16 -115 -196 -128 -247 l-7 -28 -167 -1 c-91 -1
-229 -5 -306 -8 -120 -6 -96 -8 162 -9 l301 -2 4 -62 c5 -74 2 -83 -18 -63 -8
8 -30 17 -48 21 -22 4 -36 13 -39 25 -6 23 -45 26 -54 3 -3 -8 -12 -13 -20
-10 -8 3 -11 2 -8 -4 5 -8 -40 -5 -90 6 -11 2 -74 11 -140 19 -66 8 -135 17
-152 21 l-33 7 0 -52 c0 -46 2 -51 23 -51 12 0 67 -5 122 -10 471 -47 530 -49
554 -25 13 13 12 15 -10 24 -13 5 -20 10 -16 10 5 1 2 8 -7 16 -12 12 -13 22
-4 45 16 49 37 37 40 -22 l3 -53 43 3 c25 2 42 -1 42 -7 0 -6 16 -11 35 -11
25 0 37 6 46 23 16 29 32 39 41 24 5 -8 8 -6 8 5 0 29 34 98 47 98 9 0 9 -9
-2 -40 -9 -27 -11 -42 -3 -46 7 -5 7 -9 -1 -13 -22 -14 -18 -101 4 -101 9 0
15 -7 13 -17 -4 -21 53 -60 101 -69 44 -8 70 -27 175 -125 83 -78 113 -99 141
-99 9 0 42 -17 73 -39 31 -21 91 -57 134 -80 42 -23 78 -48 81 -55 7 -17 183
-164 212 -178 13 -6 25 -22 28 -38 7 -34 32 -60 57 -60 21 0 54 29 44 39 -4 3
-9 0 -11 -6 -7 -19 -44 -16 -59 5 -21 27 -16 40 21 52 19 6 40 21 47 33 l11
22 -22 -20 c-26 -23 -108 -28 -116 -7 -3 7 -9 11 -14 8 -5 -3 -11 1 -15 9 -3
8 -11 15 -17 15 -6 0 -22 11 -35 25 -13 14 -29 25 -35 25 -7 0 -9 3 -6 7 4 3
-2 13 -13 20 -11 8 -17 19 -14 25 4 7 2 8 -4 4 -7 -4 -12 -3 -12 3 0 5 -9 13
-21 16 -11 4 -18 13 -15 20 4 11 -14 22 -46 29 -3 0 -17 10 -30 22 -13 11 -45
29 -70 39 -26 11 -44 24 -41 29 4 5 1 6 -5 2 -7 -4 -12 -2 -12 4 0 6 -5 8 -12
4 -7 -5 -9 -2 -5 8 4 11 1 15 -11 12 -9 -2 -28 5 -42 15 -22 18 -24 23 -13 50
8 22 8 31 -1 35 -6 2 -3 5 6 5 15 1 35 35 30 54 -1 4 2 7 8 7 5 0 7 6 4 14 -3
8 3 16 16 19 12 3 24 14 27 25 4 17 10 18 40 12 19 -5 45 -17 56 -28 12 -11
54 -28 93 -38 84 -21 115 -44 132 -100 6 -22 21 -49 32 -59 11 -10 20 -25 20
-34 0 -10 18 -34 40 -55 36 -34 39 -35 29 -12 -11 23 -10 29 5 44 16 16 17 16
10 0 -3 -11 -1 -18 5 -18 6 0 11 5 11 11 0 5 11 -2 25 -17 18 -19 22 -30 15
-39 -11 -13 15 -43 27 -31 3 3 1 6 -5 6 -6 0 -10 12 -10 28 1 15 -6 41 -15 58
-9 17 -13 35 -9 39 4 4 -4 5 -18 1 l-25 -6 23 12 c19 9 25 9 33 -3 10 -16 59
-159 59 -173 0 -5 -16 -6 -36 -3 -30 5 -34 4 -24 -8 7 -8 21 -15 31 -15 24 0
25 -29 3 -94 -9 -26 -14 -50 -11 -53 3 -3 9 8 13 23 4 16 11 34 16 40 5 7 11
39 14 71 6 53 2 70 -30 150 -20 50 -36 102 -36 115 0 14 -7 47 -15 74 -8 27
-15 51 -15 52 0 2 20 -14 45 -36 59 -51 95 -106 95 -141 0 -15 11 -49 24 -74
13 -26 21 -57 19 -69 -5 -27 25 -71 34 -50 2 7 11 19 19 26 11 12 11 15 -2 20
-25 10 -5 27 24 19 15 -3 32 -6 38 -6 13 0 13 -1 20 -97 8 -125 13 -112 10 30
-2 74 -7 146 -11 160 -8 23 -4 21 36 -15 24 -21 49 -51 56 -66 13 -31 33 -47
33 -26 0 8 7 20 15 27 20 17 19 31 -2 23 -14 -5 -16 -3 -6 7 7 7 25 13 42 12
21 0 30 5 34 19 6 24 -4 24 -54 -1 -49 -26 -68 -21 -127 34 -55 50 -76 94 -62
131 6 16 6 25 0 25 -6 0 -10 5 -10 10 0 6 11 10 24 10 13 0 30 7 37 16 12 14
16 12 42 -18 29 -32 29 -32 11 -3 -31 52 -36 55 -80 33 -49 -25 -117 -20 -148
11 l-21 22 35 -3 c19 -2 38 -7 42 -13 5 -6 8 -5 8 3 0 7 -7 15 -15 18 -31 12
-15 26 23 19 l37 -7 -54 41 c-30 23 -62 42 -70 43 -9 0 19 4 61 8 43 3 84 12
90 19 11 11 9 12 -9 7 -45 -14 -128 -13 -179 1 -55 16 -64 30 -64 105 0 16 -4
27 -9 23 -5 -3 -12 -1 -16 4 -3 6 -47 -10 -99 -36 -99 -47 -159 -57 -219 -34
-15 6 -27 7 -27 3 0 -4 -4 -2 -8 4 -11 17 -172 100 -231 119 -30 10 -68 26
-85 35 -17 10 -51 21 -76 25 -68 10 -100 25 -106 51 -7 27 -44 54 -74 54 -11
0 -21 6 -21 13 -1 6 -2 19 -3 27 0 9 -18 18 -46 23 -25 5 -51 16 -57 25 -8 9
-13 11 -13 4 0 -7 -8 -12 -17 -12 -16 0 -16 2 -3 10 11 8 7 9 -14 4 -16 -4
-27 -3 -23 2 3 5 -11 10 -31 12 -20 1 -44 11 -54 22 -22 24 -19 23 -45 5z m28
-57 c-10 -18 -22 -51 -26 -73 -8 -48 -30 -85 -50 -85 -19 0 -32 67 -16 83 10
9 11 5 7 -18 -3 -16 2 -8 11 19 17 48 61 106 82 106 6 0 2 -14 -8 -32z m81 2
c7 -11 21 -20 31 -20 20 0 34 -27 20 -41 -16 -16 -67 12 -84 47 -16 32 -16 34
2 34 10 0 24 -9 31 -20z m-36 -65 c10 -8 17 -15 14 -16 -42 -9 -60 -8 -60 4 0
29 17 34 46 12z m147 -12 c3 -5 -5 -35 -17 -68 -15 -42 -27 -61 -41 -63 -11
-2 -26 -11 -32 -20 -18 -23 -16 -11 13 78 23 69 30 80 50 80 12 0 25 -3 27 -7z
m85 -34 c-11 -17 -10 -22 5 -33 11 -8 17 -27 17 -50 0 -38 -5 -42 -30 -26 -11
7 -17 4 -23 -8 -10 -23 0 53 13 101 6 20 15 37 21 37 5 0 4 -9 -3 -21z m-253
-2 c12 7 26 6 46 -4 31 -15 42 -41 12 -27 -10 5 -39 9 -65 9 -42 0 -45 2 -36
19 8 14 12 15 18 6 5 -9 13 -9 25 -3z m36 -47 c19 -11 26 -30 10 -30 -5 0 -19
9 -32 20 -26 21 -11 27 22 10z m584 -121 c61 -30 73 -40 98 -86 32 -59 57
-177 30 -135 -9 12 -21 22 -27 22 -25 0 -144 -205 -137 -239 1 -8 -6 -6 -19 7
-12 11 -30 18 -40 15 -10 -3 -21 0 -24 6 -4 6 -1 9 7 5 8 -3 18 0 22 6 3 6 3
10 -2 9 -4 -1 -11 0 -15 1 -5 1 -13 3 -19 4 -6 0 -23 17 -36 36 l-25 35 31
-35 c33 -36 40 -25 15 25 -8 17 -12 22 -9 13 9 -34 -4 -18 -27 32 -13 28 -27
50 -31 50 -5 0 -5 5 -1 12 5 8 2 9 -10 5 -11 -4 -15 -3 -10 4 10 17 -47 70
-70 64 -12 -3 -15 -2 -8 1 6 3 12 10 12 15 0 4 -6 6 -12 4 -7 -3 -26 13 -41
36 l-29 40 36 33 c45 43 91 56 191 52 68 -2 91 -8 150 -37z m-543 -79 c-11
-12 -25 -18 -35 -14 -15 5 -15 8 -1 37 16 30 17 30 32 11 11 -14 13 -15 9 -2
-3 9 -3 19 1 23 17 17 11 -37 -6 -55z m1108 25 c8 -11 10 -17 6 -13 -5 4 -16
2 -25 -4 -13 -10 -14 -10 -4 1 6 7 9 21 6 30 -7 18 -4 16 17 -14z m-1902 -32
c-10 -2 -28 -2 -40 0 -13 2 -5 4 17 4 22 1 32 -1 23 -4z m125 -10 c-7 -2 -21
-2 -30 0 -10 3 -4 5 12 5 17 0 24 -2 18 -5z m790 -35 c5 -32 3 -36 -14 -35
-13 1 -17 6 -13 17 4 8 9 25 12 38 6 29 8 26 15 -20z m-700 25 c-7 -2 -21 -2
-30 0 -10 3 -4 5 12 5 17 0 24 -2 18 -5z m120 -10 c-13 -2 -33 -2 -45 0 -13 2
-3 4 22 4 25 0 35 -2 23 -4z m434 1 c-3 -3 -12 -4 -19 -1 -8 3 -5 6 6 6 11 1
17 -2 13 -5z m272 -92 c55 -40 96 -75 106 -92 5 -8 -9 1 -31 20 -21 20 -56 46
-76 58 -35 22 -78 80 -78 105 1 7 10 -5 21 -26 11 -20 37 -50 58 -65z m843 84
c14 4 18 2 14 -5 -11 -17 -52 -13 -67 6 -13 15 -12 15 9 4 12 -7 32 -9 44 -5z
m-1399 -3 c-13 -2 -35 -2 -50 0 -16 2 -5 4 22 4 28 0 40 -2 28 -4z m54 -9 c-3
-3 -12 -4 -19 -1 -8 3 -5 6 6 6 11 1 17 -2 13 -5z m1338 -130 c31 -132 42
-190 39 -193 -6 -6 -21 39 -41 122 -14 60 -22 77 -35 77 -21 0 -23 11 -6 28
14 14 36 -2 43 -34z m-244 -26 c-9 -20 -10 -18 -10 17 0 31 2 36 9 23 6 -10 7
-25 1 -40z m114 2 c4 -6 3 -10 -2 -9 -14 4 -45 -14 -36 -20 5 -3 17 -19 27
-36 l18 -30 -30 33 c-17 17 -38 32 -46 32 -9 0 -16 5 -16 10 0 6 13 10 29 10
17 0 33 5 36 10 8 13 12 13 20 0z m29 -69 c-5 -6 -34 20 -34 30 0 5 8 1 18 -8
10 -10 17 -20 16 -22z m326 -21 c0 -5 -4 -10 -10 -10 -5 0 -10 5 -10 10 0 6 5
10 10 10 6 0 10 -4 10 -10z m84 -123 c14 -46 26 -89 26 -95 0 -7 -16 -12 -41
-12 -33 0 -47 6 -71 32 -45 49 -60 103 -38 138 7 12 17 6 49 -30 23 -25 41
-53 41 -62 0 -10 5 -18 11 -18 6 0 9 -7 5 -15 -3 -9 0 -15 9 -15 8 0 15 -5 15
-12 0 -6 2 -9 5 -6 3 3 -7 42 -24 86 -25 68 -29 92 -15 92 1 0 14 -37 28 -83z
m-900 34 c-2 -3 -12 3 -22 13 -16 17 -16 18 5 5 12 -7 20 -15 17 -18z m1044
-156 c-3 -3 -9 2 -12 12 -6 14 -5 15 5 6 7 -7 10 -15 7 -18z m-218 -35 c6 -11
8 -20 6 -20 -3 0 -10 9 -16 20 -6 11 -8 20 -6 20 3 0 10 -9 16 -20z"/>
<path d="M5476 2211 c-4 -5 3 -7 14 -4 23 6 26 13 6 13 -8 0 -17 -4 -20 -9z"/>
<path d="M946 2200 c6 -6 28 -13 50 -17 52 -8 33 12 -21 22 -29 5 -37 4 -29
-5z"/>
<path d="M4757 2105 c-27 -7 -79 -29 -115 -48 -37 -19 -82 -38 -100 -42 -18
-4 -31 -9 -29 -12 3 -2 22 0 43 6 22 6 54 11 72 13 17 1 32 6 32 11 0 5 6 5
13 -1 8 -7 16 -6 24 3 6 7 11 14 10 16 -1 2 0 3 2 2 2 -2 18 6 35 17 17 10 45
26 61 34 36 19 18 19 -48 1z"/>
<path d="M4585 2080 c-13 -6 -15 -9 -5 -9 8 0 22 4 30 9 18 12 2 12 -25 0z"/>
<path d="M4478 1993 c7 -3 16 -2 19 1 4 3 -2 6 -13 5 -11 0 -14 -3 -6 -6z"/>
<path d="M1994 1935 c39 -35 70 -46 60 -22 -3 6 -26 22 -52 35 l-47 23 39 -36z"/>
<path d="M4166 1962 c-3 -5 -19 -12 -35 -15 -37 -8 -63 -47 -31 -47 21 0 87
56 78 66 -3 3 -9 1 -12 -4z"/>
<path d="M1966 1921 c-3 -5 0 -11 7 -14 8 -3 14 1 14 9 0 16 -13 19 -21 5z"/>
<path d="M2322 1784 c-31 -43 -34 -71 -8 -61 6 3 20 -1 31 -9 22 -16 25 -17
43 -5 11 6 11 13 0 37 -7 16 -19 34 -27 40 -10 8 -11 13 -3 18 7 4 12 11 12
17 0 20 -18 7 -48 -37z m48 -18 c0 -3 -4 -8 -10 -11 -5 -3 -10 -1 -10 4 0 6 5
11 10 11 6 0 10 -2 10 -4z"/>
<path d="M2642 1783 c-5 -10 -12 -30 -16 -45 -3 -15 -16 -32 -27 -39 -34 -18
-131 -20 -159 -3 l-25 15 25 -21 c21 -19 32 -21 85 -16 88 9 157 7 172 -5 18
-15 171 -7 207 11 16 8 31 22 33 30 3 11 1 10 -7 -2 -13 -21 -52 -29 -150 -31
-71 -2 -75 -1 -106 30 -29 28 -32 36 -24 63 10 33 6 39 -8 13z"/>
<path d="M897 1783 c-4 -3 -7 -11 -7 -17 0 -6 5 -5 12 2 6 6 9 14 7 17 -3 3
-9 2 -12 -2z"/>
<path d="M761 1751 c-1 -9 -10 -12 -28 -8 l-28 5 24 -19 c14 -11 39 -19 62
-19 32 0 39 -4 39 -19 0 -13 11 -23 34 -31 30 -10 37 -8 59 12 l24 23 -45 3
c-26 1 -49 7 -53 13 -3 6 -9 10 -13 10 -43 -6 -65 1 -69 22 -2 12 -5 16 -6 8z"/>
<path d="M3368 1753 c6 -2 18 -2 25 0 6 3 1 5 -13 5 -14 0 -19 -2 -12 -5z"/>
<path d="M2291 1623 c7 -12 15 -20 18 -17 3 2 -3 12 -13 22 -17 16 -18 16 -5
-5z"/>
<path d="M2410 1475 c13 -14 26 -25 28 -25 3 0 -5 11 -18 25 -13 14 -26 25
-28 25 -3 0 5 -11 18 -25z"/>
<path d="M1436 1418 c3 -5 10 -6 15 -3 13 9 11 12 -6 12 -8 0 -12 -4 -9 -9z"/>
<path d="M1765 1390 c-3 -5 3 -10 15 -10 12 0 18 5 15 10 -3 6 -10 10 -15 10
-5 0 -12 -4 -15 -10z"/>
<path d="M1970 1321 c0 -5 5 -13 10 -16 6 -3 10 -2 10 4 0 5 -4 13 -10 16 -5
3 -10 2 -10 -4z"/>
<path d="M2531 1244 c0 -11 3 -14 6 -6 3 7 2 16 -1 19 -3 4 -6 -2 -5 -13z"/>
<path d="M2404 1195 c8 -52 46 -144 73 -175 24 -29 65 -40 77 -21 3 4 -6 7
-19 5 -34 -3 -67 41 -106 142 -16 44 -28 65 -25 49z"/>
<path d="M2541 1174 c1 -27 5 -62 9 -79 5 -18 6 1 3 45 -7 86 -14 107 -12 34z"/>
<path d="M2190 1175 c-9 -39 22 -152 50 -183 39 -41 81 -25 80 31 -1 18 -4 15
-15 -11 -12 -28 -17 -32 -34 -22 -18 9 -35 28 -36 40 -1 3 -8 28 -17 55 -9 28
-19 61 -21 75 -2 14 -5 21 -7 15z"/>
<path d="M2562 1040 c0 -14 2 -19 5 -12 2 6 2 18 0 25 -3 6 -5 1 -5 -13z"/>
</g>
</svg>
